<?xml version="1.0" encoding="iso-8859-1"?>
<!-- Generator: Adobe Illustrator 19.0.0, SVG Export Plug-In . SVG Version: 6.00 Build 0)  -->
<svg version="1.1" id="Capa_1" xmlns="http://www.w3.org/2000/svg" xmlns:xlink="http://www.w3.org/1999/xlink" x="0px" y="0px"
	 viewBox="0 0 512 512" style="enable-background:new 0 0 512 512;" xml:space="preserve">
<g>
	<g>
		<g>
			<path d="M464,416V208c0-26.51-21.49-48-48-48v32c8.837,0,16,7.163,16,16v208H80V208c0-8.837,7.163-16,16-16v-32
				c-26.51,0-48,21.49-48,48v208H0v54.624L41.376,512h429.248L512,470.624V416H464z M480,457.376L457.376,480H54.624L32,457.376V448
				h448V457.376z"/>
			<path d="M384,0H128v192h256V0z M288,160H160V32h32v32h32V32h64V160z M352,160h-32V32h32V160z"/>
			<polygon points="241.904,332.096 220.944,307.904 192,332.976 192,288 160,288 160,332.976 131.056,307.904 110.096,332.096 
				176,389.168 			"/>
			<polygon points="352,275.024 380.944,300.096 401.904,275.904 336,218.832 270.096,275.904 291.056,300.096 320,275.024 320,320 
				352,320 			"/>
			<rect x="160" y="224" width="32" height="32"/>
			<rect x="320" y="352" width="32" height="32"/>
		</g>
	</g>
</g>
<g>
</g>
<g>
</g>
<g>
</g>
<g>
</g>
<g>
</g>
<g>
</g>
<g>
</g>
<g>
</g>
<g>
</g>
<g>
</g>
<g>
</g>
<g>
</g>
<g>
</g>
<g>
</g>
<g>
</g>
</svg>
