<svg id="Capa_1" enable-background="new 0 0 512.314 512.314" height="512" viewBox="0 0 512.314 512.314" width="512" xmlns="http://www.w3.org/2000/svg"><g><g><g><path d="m83.82 27.5h30.213v74.831h-30.213z" fill="#e5e1e5"/></g><path d="m135.179 151.505h-72.506v-49.942c0-8.964 7.267-16.231 16.231-16.231h40.043c8.964 0 16.231 7.267 16.231 16.231v49.942z" fill="#efedef"/><path d="m302.142 172.37c0 21.974-17.814 39.788-39.788 39.788s-39.788-17.814-39.788-39.788c0-16.923 23.597-50.518 34.447-65.07 2.664-3.573 8.019-3.573 10.683 0 10.849 14.551 34.446 48.147 34.446 65.07z" fill="#99e6fc"/><path d="m189.774 475.004c0 16.464-13.347 29.811-29.811 29.811h-122.074c-16.464 0-29.811-13.347-29.811-29.811v-261.918c0-15.086 5.868-29.58 16.363-40.418l32.806-33.877c1.416-1.462 3.364-2.287 5.399-2.287h72.56c2.035 0 3.983.825 5.399 2.287l32.806 33.877c10.495 10.837 16.363 25.332 16.363 40.418z" fill="#c8effe"/><path d="m67.901 477.615v-261.918c0-15.086 5.868-29.58 16.363-40.418l19.972-20.624c9.619-9.933 22.855-15.54 36.682-15.54l-.313-.324c-1.416-1.462-3.364-2.287-5.399-2.287h-72.56c-2.035 0-3.983.825-5.399 2.287l-32.806 33.877c-10.495 10.838-16.363 25.332-16.363 40.418v261.918c0 16.464 13.347 29.811 29.811 29.811h47.626c-10.38-4.663-17.614-15.083-17.614-27.2z" fill="#99e6fc"/><path d="m218.005 261.397c-8.31-8.31-21.79-8.31-30.11 0-4.15 4.16-6.23 9.61-6.23 15.06 0 5.44 2.08 10.89 6.23 15.05l70.402 70.581 35.439-24.782z" fill="#ffdfcf"/><path d="m202.578 282.068c-4.15-4.16-6.23-9.61-6.23-15.05 0-4.04 1.164-8.105 3.446-11.619-4.347.652-8.55 2.653-11.899 5.998-4.15 4.16-6.23 9.61-6.23 15.06 0 5.44 2.08 10.89 6.23 15.05l70.402 70.581 14.196-9.927z" fill="#ffcebf"/><g><path d="m170.393 273.997c-8.056-8.056-21.117-8.056-29.173 0-8.056 8.056-8.056 21.117 0 29.173l72.654 72.654 44.626 41.533 22.379-34.03z" fill="#ffdfcf"/><path d="m231.979 366.625-72.654-72.654c-7.06-7.06-7.915-17.985-2.601-25.995-5.576-.243-11.246 1.764-15.503 6.022-8.056 8.056-8.056 21.117 0 29.173l72.654 72.654 44.626 41.533 10.626-16.159z" fill="#ffcebf"/><g id="XMLID_218_"><g><path d="m250.825 375.827c-7.44 0-14.19-3.02-19.07-7.9s-7.9-11.63-7.9-19.07c0-6.02 1.98-11.59 5.32-16.08 4.91-6.61 12.78-10.89 21.65-10.89h27.67 38.82c3.11 0 5.94-1.74 7.4-4.49 9.53-17.99 28.46-30.25 50.24-30.25 26.59 0 48.91 18.26 55.12 42.92l68.733 68.733c3.19 3.189 3.8 8.14 1.48 12.009l-49.886 83.204c-3.29 5.487-10.861 6.421-15.386 1.897l-51.833-51.833c-1.735-1.735-4.088-2.71-6.542-2.71h-146.406c-10.47 0-20.51-4.18-27.88-11.61l-107.97-108.81c-4.46-4.46-6.69-10.31-6.69-16.15 0-5.85 2.23-11.7 6.69-16.16 8.92-8.92 23.39-8.92 32.31 0l87.18 87.19z" fill="#ffeee6"/></g><g><path d="m450.456 471.199-51.833-51.833c-1.735-1.735-4.088-2.71-6.542-2.71h-146.407c-10.47 0-20.51-4.18-27.88-11.61l-107.97-108.81c-3.685-3.685-5.824-8.345-6.464-13.138-3.279 1.083-6.366 2.93-8.974 5.538-4.46 4.46-6.69 10.31-6.69 16.16 0 5.84 2.23 11.69 6.69 16.15l107.97 108.81c7.37 7.43 17.41 11.61 27.88 11.61h146.408c2.454 0 4.807.975 6.542 2.71l51.833 51.833c4.524 4.524 12.095 3.591 15.385-1.897l13.342-22.252c-3.767 3.181-9.561 3.168-13.29-.561z" fill="#ffdfcf"/></g></g><g><g><g><path d="m231.105 80.066h-21.138c-4.38 0-7.931-3.551-7.931-7.931v-24.323c0-1.829-1.483-3.312-3.312-3.312h-162.955c-4.83 0-8.745-3.915-8.745-8.745v-19.51c0-4.83 3.915-8.745 8.745-8.745h162.956c22.263 0 40.312 18.048 40.312 40.312v24.323c-.001 4.38-3.551 7.931-7.932 7.931z" fill="#efedef"/></g></g></g><path d="m328.077 225.426c0 16.067-13.025 29.092-29.092 29.092s-29.092-13.025-29.092-29.092c0-13.024 19.117-39.556 26.357-49.138 1.373-1.818 4.096-1.818 5.47 0 7.24 9.582 26.357 36.114 26.357 49.138z" fill="#c8effe"/></g></g><g><path d="m385.78 436.062c-1.407-1.407-3.314-2.197-5.304-2.197h-150.244c-8.41 0-16.631-3.424-22.555-9.394l-68.566-69.102c-2.917-2.939-7.666-2.958-10.606-.041s-2.958 7.666-.041 10.606l68.566 69.102c8.72 8.788 20.822 13.829 33.202 13.829h147.138l61.252 61.252c1.465 1.464 3.385 2.197 5.304 2.197s3.839-.732 5.304-2.197c2.929-2.929 2.929-7.678 0-10.606z"/><path d="m509.539 398.924-72.747-72.747c-7.885-27.504-33.012-46.533-61.834-46.533-23.888 0-45.681 13.122-56.875 34.247-.162.308-.455.499-.764.499h-35.718l-58.294-58.293c-5.437-5.438-12.666-8.432-20.355-8.432s-14.918 2.995-20.355 8.432c-3.536 3.536-5.943 7.773-7.249 12.266-10.993-10.626-28.577-10.521-39.43.333-3.436 3.436-5.787 7.548-7.068 11.91-11.882-9.007-28.933-8.1-39.766 2.733-11.831 11.83-11.831 31.08-.021 42.89l16.839 16.971c2.918 2.94 7.666 2.96 10.606.041 2.94-2.917 2.958-7.666.041-10.606l-16.86-16.991c-2.897-2.898-4.494-6.75-4.494-10.849s1.596-7.951 4.494-10.849c2.898-2.897 6.75-4.494 10.849-4.494s7.951 1.596 10.849 4.494l87.184 87.184c1.406 1.407 3.314 2.197 5.303 2.197h114.016c4.143 0 7.5-3.358 7.5-7.5s-3.357-7.5-7.5-7.5h-77.065c-10.734 0-19.467-8.733-19.467-19.467s8.733-19.467 19.467-19.467h66.494c5.878 0 11.25-3.249 14.019-8.476 8.587-16.203 25.301-26.269 43.62-26.269 22.65 0 42.323 15.317 47.841 37.25.331 1.315 1.012 2.515 1.97 3.474l74.163 74.163c1.465 1.464 3.385 2.197 5.304 2.197s3.839-.732 5.304-2.197c2.928-2.933 2.928-7.682-.001-10.611zm-292.558-30.6-70.461-70.462c-5.115-5.119-5.114-13.445.004-18.562 5.12-5.12 13.449-5.119 18.566 0l54.658 54.659c-2.172 4.512-3.39 9.565-3.39 14.898 0 7.219 2.235 13.924 6.044 19.467zm12.134-46.212-35.912-35.912c-5.375-5.375-5.375-14.122 0-19.498 2.604-2.604 6.066-4.039 9.749-4.039s7.145 1.435 9.749 4.039l47.687 47.687h-9.562c-8.223 0-15.78 2.899-21.711 7.723z"/><path d="m189.774 450.78c-4.142 0-7.5 3.358-7.5 7.5v16.724c0 12.302-10.008 22.311-22.311 22.311h-122.074c-12.302 0-22.311-10.008-22.311-22.311v-220.395c0-4.142-3.358-7.5-7.5-7.5s-7.5 3.358-7.5 7.5v220.395c0 20.573 16.737 37.311 37.311 37.311h122.074c20.573 0 37.311-16.737 37.311-37.311v-16.724c0-4.142-3.358-7.5-7.5-7.5z"/><path d="m8.078 230.147c4.142 0 7.5-3.358 7.5-7.5v-9.561c0-13.21 5.061-25.711 14.25-35.201l32.811-33.881h72.573l32.811 33.881c9.189 9.49 14.25 21.991 14.25 35.201v13.79c0 4.142 3.358 7.5 7.5 7.5s7.5-3.358 7.5-7.5v-13.79c0-17.125-6.561-33.333-18.475-45.635l-35.021-36.164c-.337-.348-.707-.658-1.099-.931v-28.794c0-12.212-9.273-22.296-21.146-23.588v-25.974h73.004v20.135c0 8.509 6.922 15.431 15.431 15.431h21.138c8.509 0 15.431-6.922 15.431-15.431v-24.323c0-26.364-21.448-47.812-47.811-47.812h-104.089c-4.142 0-7.5 3.358-7.5 7.5s3.358 7.5 7.5 7.5h104.089c18.092 0 32.812 14.719 32.812 32.812v24.323c0 .238-.193.431-.431.431h-21.138c-.238 0-.431-.193-.431-.431v-24.323c0-5.962-4.85-10.812-10.812-10.812h-162.956c-.687 0-1.245-.558-1.245-1.245v-19.51c0-.686.558-1.245 1.245-1.245h26.904c4.142 0 7.5-3.358 7.5-7.5s-3.358-7.5-7.5-7.5h-26.904c-8.958 0-16.245 7.287-16.245 16.245v19.511c0 8.957 7.287 16.244 16.245 16.244h40.551v25.974c-11.874 1.292-21.146 11.376-21.146 23.588v28.794c-.392.273-.761.583-1.099.931l-35.021 36.164c-11.914 12.302-18.476 28.509-18.476 45.635v9.561c0 4.142 3.358 7.5 7.5 7.5zm98.455-178.147v25.831h-15.213v-25.831zm-27.629 40.831h40.043c4.814 0 8.731 3.917 8.731 8.731v27.442h-57.505v-27.442c0-4.814 3.917-8.731 8.731-8.731z"/><path d="m243.742 109.217c-20.437 29.002-30.8 50.405-30.8 63.613 0 18.165 9.893 34.906 25.817 43.69 1.149.634 2.391.935 3.616.935 2.644 0 5.207-1.401 6.574-3.879 2.001-3.627.683-8.189-2.944-10.189-11.142-6.146-18.063-17.854-18.063-30.557 0-4.556 2.734-19.032 28.061-54.973 1.583-2.246 4.066-3.534 6.813-3.534 2.746 0 5.229 1.288 6.812 3.534 8.212 11.652 15.063 22.598 19.814 31.653 1.926 3.667 6.46 5.082 10.126 3.156 3.668-1.924 5.081-6.458 3.157-10.126-5.122-9.761-12.132-20.973-20.836-33.324-4.365-6.194-11.495-9.893-19.073-9.893-7.578.001-14.709 3.699-19.074 9.894z"/><path d="m289.067 173.364c-22.047 29.569-26.675 44.632-26.675 52.062 0 20.177 16.415 36.592 36.593 36.592 20.177 0 36.592-16.415 36.592-36.592 0-7.429-4.628-22.491-26.675-52.063-2.358-3.162-5.974-4.976-9.919-4.976-3.945.002-7.56 1.816-9.916 4.977zm31.51 52.062c0 11.906-9.687 21.592-21.592 21.592-11.906 0-21.593-9.686-21.593-21.592 0-6.529 8.401-22.13 21.593-40.236 13.19 18.107 21.592 33.708 21.592 40.236z"/></g></g></svg>