<?xml version="1.0" encoding="iso-8859-1"?>
<!-- Generator: Adobe Illustrator 19.0.0, SVG Export Plug-In . SVG Version: 6.00 Build 0)  -->
<svg version="1.1" id="Capa_1" xmlns="http://www.w3.org/2000/svg" xmlns:xlink="http://www.w3.org/1999/xlink" x="0px" y="0px"
	 viewBox="0 0 512 512" style="enable-background:new 0 0 512 512;" xml:space="preserve">
<g>
	<g>
		<g>
			<path d="M224,64v80H84.464l-33.12,99.344L0,260.464V400h66.272c8.677,34.091,43.348,54.694,77.439,46.017
				c22.609-5.754,40.263-23.408,46.017-46.017h132.544c8.677,34.091,43.348,54.694,77.439,46.017
				c22.609-5.754,40.263-23.408,46.017-46.017H512v-32h-66.272c-8.677-34.091-43.348-54.694-77.439-46.017
				c-22.609,5.754-40.263,23.408-46.017,46.017H256V96h256V64H224z M128,416c-17.673,0-32-14.327-32-32c0-17.673,14.327-32,32-32
				s32,14.327,32,32C160,401.673,145.673,416,128,416z M224,368h-34.272c-8.677-34.091-43.348-54.694-77.439-46.017
				C89.68,327.737,72.026,345.391,66.272,368H32v-84.464L66.592,272H224V368z M224,240H86.208l21.328-64H224V240z M384,352
				c17.673,0,32,14.327,32,32c0,17.673-14.327,32-32,32c-17.673,0-32-14.327-32-32C352,366.327,366.327,352,384,352z"/>
			<rect x="288" y="144" width="128" height="32"/>
			<rect x="448" y="144" width="32" height="32"/>
			<rect x="352" y="208" width="96" height="32"/>
			<rect x="480" y="208" width="32" height="32"/>
		</g>
	</g>
</g>
<g>
</g>
<g>
</g>
<g>
</g>
<g>
</g>
<g>
</g>
<g>
</g>
<g>
</g>
<g>
</g>
<g>
</g>
<g>
</g>
<g>
</g>
<g>
</g>
<g>
</g>
<g>
</g>
<g>
</g>
</svg>
