<svg height="480pt" viewBox="0 0 480 480.584" width="480pt" xmlns="http://www.w3.org/2000/svg"><path d="m89.691406 130.632812c22.773438 0 41.234375-18.460937 41.234375-41.234374 0-22.769532-18.460937-41.230469-41.234375-41.230469-22.769531 0-41.230468 18.460937-41.230468 41.230469.027343 22.761718 18.46875 41.207031 41.230468 41.234374zm0-66.464843c13.9375 0 25.234375 11.296875 25.234375 25.230469 0 13.9375-11.296875 25.234374-25.234375 25.234374-13.933594 0-25.230468-11.296874-25.230468-25.234374.015624-13.925782 11.304687-25.210938 25.230468-25.230469zm0 0"/><path d="m448.429688 355.382812-3.089844-80.71875 15.054687-20.703124-18.253906-33.554688 3.664063-11.277344 34.488281-16.417968v-33.421876l-34.488281-16.417968-3.664063-11.277344 18.253906-33.554688-19.648437-27.023437-37.550782 6.984375-9.597656-6.976562-4.960937-37.863282-31.761719-10.328125-26.277344 27.71875h-11.859375l-26.277343-27.71875-31.769532 10.328125-1.550781 11.808594-111.113281-6.617188-7.488282-7.488281-2.070312-16.800781-29.984375-12.460938-13.359375 10.4375h-10.832031l-13.394531-10.4375-30 12.445313-2.0625 16.800781-7.679688 7.679688-16.800781 2.066406-12.464844 30.015625 10.457031 13.390625v10.855469l-10.457031 13.335937 9.914063 23.914063-11.039063 141.535156c-.25 1.804687-.390625 3.621094-.425781 5.4375v.296875h-.046875v.625c-.023438 16.230469 8.171875 31.371094 21.773437 40.230469 13.601563 8.859375 30.765625 10.230469 45.601563 3.648437l47.34375-19.726562c-7.671875 21.660156 1.191406 45.714844 21.089843 57.214844l-73.128906 23.5625c-24.191406 4.824218-40.785156 27.203124-38.378906 51.753906 2.40625 24.550781 23.03125 43.277344 47.699219 43.316406h.421875l294.578125-15.449219 4.511719 10.816407 25.4375 5.21875 20.648437-20.058594 5.257813-1.742188 28.550781 3.679688 17.242187-19.425782-7.050781-27.910156 1.121094-5.433594 17.457031-22.886718-8.175781-24.640625zm-173.195313-310.136718 12.5625-4.078125 24.0625 25.382812h25.601563l24.0625-25.382812 12.570312 4.078125 4.535156 34.683594 20.71875 15.054687 34.398438-6.398437 7.753906 10.679687-16.703125 30.734375 7.917969 24.359375 31.578125 15.039063v13.203124l-31.578125 15.039063-7.917969 24.359375 16.703125 30.726562-7.753906 10.679688-34.398438-6.398438-20.71875 15.054688-4.535156 34.679688-12.570312 4.082031-24.0625-25.382813h-25.601563l-24.0625 25.382813-12.5625-4.082031-4.542969-34.664063-20.71875-15.0625-34.402344 6.398437-7.757812-10.679687 16.703125-30.71875-7.910156-24.367187-31.578125-15.039063v-13.203125l31.578125-15.039062 7.910156-24.367188-16.703125-30.71875 7.757812-10.679688 34.402344 6.398438 20.71875-15.078125zm-254.941406 22.875 5.277343-12.800782 13.035157-1.601562 15.453125-15.429688 1.601562-13.03125 12.800782-5.28125 10.34375 8.078126h21.878906l10.296875-8.054688 12.800781 5.28125 1.597656 13.023438 15.417969 15.457031 13.03125 1.597656 5.289063 12.800781-8.082032 10.34375v21.878906l8.082032 10.34375-5.289063 12.800782-13.03125 1.601562-15.457031 15.457032-1.601563 13.03125-12.796875 5.285156-10.34375-8.078125h-21.839844l-10.347656 8.078125-12.796875-5.285156-1.601562-13.03125-15.441407-15.539063-13.023437-1.597656-5.277344-12.800781 8.078125-10.34375v-21.839844zm-4 212.023437.09375-1.25c1.613281-16.484375 16.199219-28.601562 32.703125-27.160156s28.769531 15.902344 27.496094 32.421875c-1.269532 16.515625-15.601563 28.929688-32.128907 27.832031-16.53125-1.101562-29.09375-15.304687-28.164062-31.84375zm144 7.855469c17.671875 0 32 14.328125 32 32s-14.328125 32-32 32c-17.675781 0-32-14.328125-32-32s14.324219-32 32-32zm-120 144c.035156-12.429688 7.265625-23.710938 18.542969-28.9375l7.734374-2.488281c11.855469-2.105469 23.886719 2.628906 31.128907 12.246093 7.242187 9.621094 8.460937 22.492188 3.160156 33.300782-5.304687 10.808594-16.234375 17.71875-28.269531 17.878906h-.394532c-17.636718-.054688-31.902343-14.363281-31.902343-32zm69.390625 30.023438c8.722656-10.800782 12.324218-24.859376 9.871094-38.523438-2.457032-13.664062-10.730469-25.589844-22.671876-32.675781l78.136719-25.136719c16.878907-5.265625 29.496094-19.390625 32.835938-36.753906 3.339843-17.363282-3.136719-35.15625-16.855469-46.3125-13.722656-11.152344-32.464844-13.859375-48.78125-7.046875l-48.605469 20.257812c7.019531-19.976562.09375-42.191406-17.035156-54.640625-17.132813-12.445312-40.398437-12.167968-57.230469.679688l8-102.0625 3.878906.480468 7.679688 7.679688 2.066406 16.800781 30.007813 12.414063 13.359375-10.398438h10.855468l13.351563 10.398438 29.921875-12.382813 2.070312-16.800781 7.679688-7.679688 16.800781-2.074218 12.417969-29.988282-10.402344-13.355468v-10.902344l10.402344-13.359375-6.144531-14.847656 85.800781 5.078125-1.328125 10.160156-9.601563 6.96875-37.542968-6.984375-19.648438 27.023437 18.246094 33.554688-3.65625 11.253906-34.488281 16.441406v33.421876l34.480469 16.417968 3.664062 11.277344-18.246094 33.554688 19.648438 27.023437 37.542968-6.984375 9.601563 6.96875 4.957031 37.871094 31.769532 10.328125 26.28125-27.71875h11.855468l26.277344 27.71875 31.769531-10.328125 4.960938-37.863282 9.597656-6.976562 26.304687 4.894531 1.914063 50.058594-2.042969-4.890625-25.445312-5.230469-20.695313 20.046875-5.257812 1.753906-28.550781-3.679687-17.242188 19.421875 7.035156 27.914062-1.121094 5.429688-17.457031 22.882812 8.199219 24.644532 27.6875 7.875 4.152344 3.679687v.054688zm338.402344-59.128907-2.59375 12.59375 5.863281 23.253907-6.007813 6.761718-23.785156-3.046875-12.191406 4.046875-17.207032 16.695313-8.855468-1.808594-9.234375-22.125-9.597657-8.539063-23.066406-6.558593-2.863281-8.59375 14.546875-19.0625 2.582031-12.582031-5.863281-23.257813 6.007812-6.769531 23.785157 3.058594 12.199219-4.050782 17.214843-16.703125 8.855469 1.824219 9.242188 22.136719 9.597656 8.519531 23.066406 6.550781 2.855469 8.59375zm0 0"/><path d="m64.292969 280c0 8.835938-7.164063 16-16 16-8.835938 0-16-7.164062-16-16s7.164062-16 16-16c8.835937 0 16 7.164062 16 16zm0 0"/><path d="m176.292969 320c0 8.835938-7.164063 16-16 16-8.835938 0-16-7.164062-16-16s7.164062-16 16-16c8.835937 0 16 7.164062 16 16zm0 0"/><path d="m88.292969 432c0 8.835938-7.164063 16-16 16-8.835938 0-16-7.164062-16-16s7.164062-16 16-16c8.835937 0 16 7.164062 16 16zm0 0"/><path d="m400.292969 360c-22.09375 0-40 17.910156-40 40s17.90625 40 40 40c22.089843 0 40-17.910156 40-40-.027344-22.082031-17.921875-39.972656-40-40zm0 64c-13.253907 0-24-10.746094-24-24s10.746093-24 24-24c13.253906 0 24 10.746094 24 24s-10.746094 24-24 24zm0 0"/><path d="m320.292969 256c44.183593 0 80-35.816406 80-80s-35.816407-80-80-80c-44.183594 0-80 35.816406-80 80 .046875 44.164062 35.835937 79.953125 80 80zm0-144c35.34375 0 64 28.652344 64 64s-28.65625 64-64 64c-35.347657 0-64-28.652344-64-64 .039062-35.328125 28.667969-63.960938 64-64zm0 0"/><path d="m320.292969 224c26.507812 0 48-21.492188 48-48s-21.492188-48-48-48c-26.511719 0-48 21.492188-48 48 .027343 26.5 21.5 47.972656 48 48zm0-80c17.671875 0 32 14.328125 32 32s-14.328125 32-32 32c-17.675781 0-32-14.328125-32-32s14.324219-32 32-32zm0 0"/><path d="m432.292969 24c0 13.253906 10.746093 24 24 24 13.253906 0 24-10.746094 24-24s-10.746094-24-24-24c-13.253907 0-24 10.746094-24 24zm32 0c0 4.417969-3.582031 8-8 8s-8-3.582031-8-8 3.582031-8 8-8 8 3.582031 8 8zm0 0"/><path d="m224.292969 16c0 8.835938-7.164063 16-16 16-8.835938 0-16-7.164062-16-16s7.164062-16 16-16c8.835937 0 16 7.164062 16 16zm0 0"/></svg>